<svg width="101" height="68" xmlns="http://www.w3.org/2000/svg" class="css-116ckqy" preserveAspectRatio="xMidYMid meet">

 <g>
  <title>Layer 1</title>
  <g fill="#FFFFFF" transform="matrix(1.56265 0 0 1.56265 -0.00468794 -16.4906)" featurekey="JKiIdh-0" id="SvgjsG1675">
   <g id="svg_1" fill="#FFFFFF" display="none" xmlns="http://www.w3.org/2000/svg">
    <rect id="svg_2" height="375.042" width="787" fill="#FFFFFF" display="inline" y="-158.65683" x="-84.42186"/>
   </g>
   <g id="svg_3" fill="#FFFFFF" display="none" xmlns="http://www.w3.org/2000/svg">
    <g id="svg_4" fill="#FFFFFF" display="inline">
     <g id="svg_5" fill="#FFFFFF">
      <path id="svg_6" fill="#FFFFFF" d="m59.26814,49.82517l0,-36.794c0,-0.88 -0.72,-1.6 -1.6,-1.6l-51.18,0c-0.88,0 -1.6,0.72 -1.6,1.6l0,36.794c0.001,0 54.514,0 54.38,0z"/>
      <rect id="svg_7" fill="#FFFFFF" height="34.394" width="50.381" y="13.43117" x="6.88814"/>
      <rect id="svg_8" height="1" width="63.989" fill="#FFFFFF" y="49.82517" x="0.07314"/>
      <polygon id="svg_9" points="60.874267578125,52.824105486273766 3.284130096435547,52.824105486273766 0.08413584530353546,50.82510493695736 64.0733871459961,50.82510493695736 " fill="#FFFFFF"/>
      <path id="svg_10" d="m37.44714,49.82517l-10.759,0c0.102,0.561 0.603,1 1.229,1l8.3,0c0.627,0 1.128,-0.439 1.23,-1z" fill="#FFFFFF" opacity="0.7"/>
     </g>
    </g>
    <text x="0.07314" y="0.12817" id="svg_11" font-size="24.4706px" font-family="'MyriadPro-Semibold'" fill="#FFFFFF" display="inline" transform="matrix(1 0 0 1 13.293 38.2948)">/</text>
   </g>
   <g id="svg_12" fill="#FFFFFF" xmlns="http://www.w3.org/2000/svg">
    <path id="svg_13" fill="#FFFFFF" d="m14.85914,31.03117l11.601,-5.629l0,2.202l-9.202,4.283l0,0.049l9.202,4.308l0,2.179l-11.601,-5.629l0,-1.763z"/>
    <path id="svg_14" fill="#FFFFFF" d="m28.14514,39.40117l5.973,-17.744l2.104,0l-5.972,17.744l-2.105,0z"/>
    <path id="svg_15" fill="#FFFFFF" d="m49.29014,32.84317l-11.601,5.58l0,-2.179l9.35,-4.308l0,-0.048l-9.35,-4.308l0,-2.178l11.601,5.58l0,1.861z"/>
    <polygon id="svg_16" fill="#FFFFFF" points="60.87126922607422,53.57510493695736 3.281129837036133,53.57510493695736 0.08113647997379303,51.07510493695736 64.07038879394531,51.07510493695736 "/>
    <path id="svg_17" fill="#FFFFFF" d="m60.26514,50.07517l-2,0l0,-36.794c0,-0.325 -0.274,-0.6 -0.6,-0.6l-51.18,0c-0.325,0 -0.6,0.274 -0.6,0.6l0,36.794l-2,0l0,-36.794c0,-1.434 1.166,-2.6 2.6,-2.6l51.181,0c1.434,0 2.6,1.166 2.6,2.6l0,36.794l-0.001,0z"/>
    <path id="svg_18" fill="#FFFFFF" d="m26.30714,49.57517l-26.231,0l0,1.5l28.076,0c-0.94,0 -1.692,-0.658 -1.845,-1.5z"/>
    <path id="svg_19" fill="#FFFFFF" d="m37.83314,49.57517c-0.153,0.842 -0.904,1.5 -1.844,1.5l28.076,0l0,-1.5l-26.232,0z"/>
   </g>
  </g>
 </g>
</svg>