<svg xmlns:xlink="http://www.w3.org/1999/xlink" xmlns="http://www.w3.org/2000/svg" viewBox="0 0 220 67.0281510504157" preserveAspectRatio="xMidYMid meet" class="css-116ckqy" id="dfeahagb" width="220"  height="67.0281510504157" ><defs id="SvgjsDefs2065"></defs><g id="SvgjsG2066" featurekey="JKiIdh-0" transform="matrix(1.5626464176278418,0,0,1.5626464176278418,-0.004687939293632706,-16.490606858371578)" fill="#4D2D73"><g xmlns="http://www.w3.org/2000/svg" display="none" fill="#4D2D73"><rect x="-84.495" y="-158.785" display="inline" fill="#4D2D73" width="787" height="375.042"></rect></g><g xmlns="http://www.w3.org/2000/svg" display="none" fill="#4D2D73"><g display="inline" fill="#4D2D73"><g fill="#4D2D73"><path d="M59.195,49.697V12.903c0-0.88-0.72-1.6-1.6-1.6H6.415c-0.88,0-1.6,0.72-1.6,1.6v36.794     C4.816,49.697,59.329,49.697,59.195,49.697z" fill="#4D2D73"></path><rect x="6.815" y="13.303" width="50.381" height="34.394" fill="#4D2D73"></rect><rect x="0" y="49.697" fill="#4D2D73" width="63.989" height="1"></rect><polygon fill="#4D2D73" points="60.801,52.696 3.211,52.696 0.011,50.697 64,50.697    "></polygon><path opacity="0.7" fill="#4D2D73" d="M37.374,49.697H26.615c0.102,0.561,0.603,1,1.229,1h8.3     C36.771,50.697,37.272,50.258,37.374,49.697z"></path></g></g><text transform="matrix(1 0 0 1 13.293 38.2948)" display="inline" fill="#4D2D73" font-family="'MyriadPro-Semibold'" font-size="24.4706px">/</text></g><g xmlns="http://www.w3.org/2000/svg" fill="#4D2D73"><path d="M14.786,30.903l11.601-5.629v2.202l-9.202,4.283v0.049l9.202,4.308v2.179l-11.601-5.629V30.903z" fill="#4D2D73"></path><path d="M28.072,39.273l5.973-17.744h2.104l-5.972,17.744H28.072z" fill="#4D2D73"></path><path d="M49.217,32.715l-11.601,5.58v-2.179l9.35-4.308V31.76l-9.35-4.308v-2.178l11.601,5.58V32.715z" fill="#4D2D73"></path><polygon points="60.798,53.447 3.208,53.447 0.008,50.947 63.997,50.947  " fill="#4D2D73"></polygon><path d="M60.192,49.947h-2V13.153c0-0.325-0.274-0.6-0.6-0.6H6.412c-0.325,0-0.6,0.274-0.6,0.6v36.794h-2V13.153   c0-1.434,1.166-2.6,2.6-2.6h51.181c1.434,0,2.6,1.166,2.6,2.6V49.947z" fill="#4D2D73"></path><path d="M26.234,49.447H0.003v1.5h28.076C27.139,50.947,26.387,50.289,26.234,49.447z" fill="#4D2D73"></path><path d="M37.76,49.447c-0.153,0.842-0.904,1.5-1.844,1.5h28.076v-1.5H37.76z" fill="#4D2D73"></path></g></g><g id="SvgjsG2067" featurekey="A7DQL5-0" transform="matrix(2.0125994758599615,0,0,2.0125994758599615,119.40930216131952,-5.851592631022532)" fill="#4D2D73"><path d="M11.27 20 l-1.0254 -2.9102 l-5.9277 0 l-1.0254 2.9102 l-2.998 0 l5.1953 -14.111 l3.584 0 l5.1953 14.111 l-2.998 0 z M5.1758 14.6387 l4.209 0 l-2.0996 -5.9863 z M14.843746875 20 l5.498 -7.3633 l-5.3418 -6.748 l3.5645 0 l3.5156 4.6289 l3.5156 -4.6289 l3.5645 0 l-5.3418 6.748 l5.498 7.3633 l-3.7305 0 l-3.5059 -4.9902 l-3.5059 4.9902 l-3.7305 0 z M39.609609375 8.467 l-5.2344 0 l0 3.2031 l4.6387 0 l0 2.5488 l-4.6387 0 l0 3.1934 l5.2344 0 l0 2.5879 l-8.1836 0 l0 -14.111 l8.1836 0 l0 2.5781 z M45.55668125 17.4121 l4.4238 0 l0 2.5879 l-7.3535 0 l0 -14.111 l2.9297 0 l0 11.523 z" fill="#4D2D73"></path></g><g id="SvgjsG2068" featurekey="A7DQL5-1" transform="matrix(1.1517236313176882,0,0,1.1517236313176882,117.89684860728536,37.44287893387536)" fill="#4D2D73"><path d="M9.2773 20 l-3.6719 -6.2109 l-0.84961 0 l0 6.2109 l-2.9297 0 l0 -14.111 l5.1172 0 c3.1934 0 4.541 1.8848 4.541 4.2188 c0 1.8945 -1.0742 3.125 -2.9883 3.5352 l4.248 6.3574 l-3.4668 0 z M4.7559 8.32 l0 3.3691 l1.7285 0 c1.5625 0 2.1973 -0.66406 2.1973 -1.6797 c0 -1.0059 -0.63477 -1.6895 -2.1973 -1.6895 l-1.7285 0 z M23.076406249999998 8.467 l-5.2344 0 l0 3.2031 l4.6387 0 l0 2.5488 l-4.6387 0 l0 3.1934 l5.2344 0 l0 2.5879 l-8.1836 0 l0 -14.111 l8.1836 0 l0 2.5781 z M35.068578125 5.888999999999999 l3.1152 0 l-5.2148 14.111 l-3.2227 0 l-5.1855 -14.111 l3.1055 0 l3.7012 10.693 z M40.3027625 20 l0 -14.111 l2.9297 0 l0 14.111 l-2.9297 0 z M54.326128125 20 l-3.6719 -6.2109 l-0.84961 0 l0 6.2109 l-2.9297 0 l0 -14.111 l5.1172 0 c3.1934 0 4.541 1.8848 4.541 4.2188 c0 1.8945 -1.0742 3.125 -2.9883 3.5352 l4.248 6.3574 l-3.4668 0 z M49.804728125 8.32 l0 3.3691 l1.7285 0 c1.5625 0 2.1973 -0.66406 2.1973 -1.6797 c0 -1.0059 -0.63477 -1.6895 -2.1973 -1.6895 l-1.7285 0 z M66.191434375 20.19531 c-4.1504 0 -7.2168 -2.832 -7.2168 -7.2559 c0 -4.4336 3.0664 -7.2461 7.2168 -7.2461 c4.1406 0 7.207 2.8125 7.207 7.2461 c0 4.4238 -3.0664 7.2559 -7.207 7.2559 z M66.191434375 17.5098 c2.4316 0 4.2969 -1.709 4.2969 -4.5703 c0 -2.8516 -1.8652 -4.5508 -4.2969 -4.5508 s-4.2969 1.6992 -4.2969 4.5508 c0 2.8613 1.8652 4.5703 4.2969 4.5703 z M85.732578125 5.888999999999999 l2.9199 0 l0 14.111 l-3.3887 0 l-6.25 -10.088 l0 10.088 l-2.9199 0 l0 -14.111 l3.3496 0 l6.2891 10.029 l0 -10.029 z" fill="#4D2D73"></path></g></svg>