<svg xmlns:xlink="http://www.w3.org/1999/xlink" xmlns="http://www.w3.org/2000/svg" class="css-ze2te4 css-qd6ojx" viewBox="0 0 100 67.0281510504157" width="110"  height="74" ><g transform="translate(-0.004687939293632706, -16.490606858371578) scale(1.5626464176278418)" class="css-4p6xxp" fill="#4D2D73"><g xmlns="http://www.w3.org/2000/svg" display="none" fill="#4D2D73"><rect x="-84.495" y="-158.785" display="inline" fill="#4D2D73" width="787" height="375.042"></rect></g><g xmlns="http://www.w3.org/2000/svg" display="none" fill="#4D2D73"><g display="inline" fill="#4D2D73"><g fill="#4D2D73"><path d="M59.195,49.697V12.903c0-0.88-0.72-1.6-1.6-1.6H6.415c-0.88,0-1.6,0.72-1.6,1.6v36.794     C4.816,49.697,59.329,49.697,59.195,49.697z" fill="#4D2D73"></path><rect x="6.815" y="13.303" width="50.381" height="34.394" fill="#4D2D73"></rect><rect x="0" y="49.697" fill="#4D2D73" width="63.989" height="1"></rect><polygon fill="#4D2D73" points="60.801,52.696 3.211,52.696 0.011,50.697 64,50.697    "></polygon><path opacity="0.7" fill="#4D2D73" d="M37.374,49.697H26.615c0.102,0.561,0.603,1,1.229,1h8.3     C36.771,50.697,37.272,50.258,37.374,49.697z"></path></g></g><text transform="matrix(1 0 0 1 13.293 38.2948)" display="inline" fill="#4D2D73" font-family="'MyriadPro-Semibold'" font-size="24.4706px">/</text></g><g xmlns="http://www.w3.org/2000/svg" fill="#4D2D73"><path d="M14.786,30.903l11.601-5.629v2.202l-9.202,4.283v0.049l9.202,4.308v2.179l-11.601-5.629V30.903z" fill="#4D2D73"></path><path d="M28.072,39.273l5.973-17.744h2.104l-5.972,17.744H28.072z" fill="#4D2D73"></path><path d="M49.217,32.715l-11.601,5.58v-2.179l9.35-4.308V31.76l-9.35-4.308v-2.178l11.601,5.58V32.715z" fill="#4D2D73"></path><polygon points="60.798,53.447 3.208,53.447 0.008,50.947 63.997,50.947  " fill="#4D2D73"></polygon><path d="M60.192,49.947h-2V13.153c0-0.325-0.274-0.6-0.6-0.6H6.412c-0.325,0-0.6,0.274-0.6,0.6v36.794h-2V13.153   c0-1.434,1.166-2.6,2.6-2.6h51.181c1.434,0,2.6,1.166,2.6,2.6V49.947z" fill="#4D2D73"></path><path d="M26.234,49.447H0.003v1.5h28.076C27.139,50.947,26.387,50.289,26.234,49.447z" fill="#4D2D73"></path><path d="M37.76,49.447c-0.153,0.842-0.904,1.5-1.844,1.5h28.076v-1.5H37.76z" fill="#4D2D73"></path></g></g></svg>